<?xml version="1.0" standalone="no"?>
<!DOCTYPE svg PUBLIC "-//W3C//DTD SVG 20010904//EN"
 "http://www.w3.org/TR/2001/REC-SVG-20010904/DTD/svg10.dtd">
<svg version="1.0" xmlns="http://www.w3.org/2000/svg"
 width="389.000000pt" height="320.000000pt" viewBox="0 0 389.000000 320.000000"
 preserveAspectRatio="xMidYMid meet">

<g transform="translate(0.000000,320.000000) scale(0.100000,-0.100000)"
fill="#000000" stroke="none">
<path d="M0 1600 l0 -1600 1945 0 1945 0 0 1600 0 1600 -1945 0 -1945 0 0
-1600z m1216 1084 c63 -30 94 -100 80 -178 -5 -24 -29 -59 -78 -113 -207 -228
-322 -495 -347 -811 -9 -115 0 -305 20 -402 45 -222 149 -432 294 -591 91
-100 105 -124 105 -183 0 -124 -124 -203 -236 -150 -48 23 -211 197 -277 295
-169 255 -261 539 -273 852 -15 345 75 663 266 947 86 128 265 317 320 339 38
15 88 13 126 -5z m1677 2 c48 -20 245 -228 314 -331 193 -288 283 -605 270
-950 -15 -402 -163 -764 -423 -1035 -52 -54 -110 -105 -128 -114 -112 -53
-236 26 -236 150 0 58 15 85 97 174 33 36 81 94 107 130 51 72 132 230 142
279 l7 31 -721 0 c-485 0 -730 3 -749 11 -64 24 -122 109 -123 179 0 49 37
118 83 154 l39 31 768 3 768 2 6 25 c8 32 -10 238 -30 332 -52 255 -158 460
-331 645 -58 62 -73 91 -73 145 0 110 111 183 213 139z m-899 -480 c49 -20
112 -81 135 -130 41 -83 23 -198 -41 -271 -53 -60 -108 -85 -189 -85 -77 0
-129 22 -181 76 -48 51 -69 102 -69 173 -1 146 103 251 248 251 35 0 79 -6 97
-14z"/>
</g>
</svg>
